<svg>
<symbol xmlns="http://www.w3.org/2000/svg" xmlns:xlink="http://www.w3.org/1999/xlink" width="16px" height="16px" viewbox="0 0 16 16" version="1.1" id="calendar">
<g id="surface1">
<path style="fill:none;stroke-width:2;stroke-linecap:round;stroke-linejoin:round;stroke:rgb(0%,0%,0%);stroke-opacity:1;stroke-miterlimit:4;" d="M 4.998047 4.001953 L 19.001953 4.001953 C 20.103516 4.001953 21 4.892578 21 6 L 21 19.998047 C 21 21.105469 20.103516 22.001953 19.001953 22.001953 L 4.998047 22.001953 C 3.896484 22.001953 3 21.105469 3 19.998047 L 3 6 C 3 4.892578 3.896484 4.001953 4.998047 4.001953 Z M 4.998047 4.001953 " transform="matrix(0.666667,0,0,0.666667,0,0)"></path>
<path style="fill:none;stroke-width:2;stroke-linecap:round;stroke-linejoin:round;stroke:rgb(0%,0%,0%);stroke-opacity:1;stroke-miterlimit:4;" d="M 16.001953 1.998047 L 16.001953 6 " transform="matrix(0.666667,0,0,0.666667,0,0)"></path>
<path style="fill:none;stroke-width:2;stroke-linecap:round;stroke-linejoin:round;stroke:rgb(0%,0%,0%);stroke-opacity:1;stroke-miterlimit:4;" d="M 7.998047 1.998047 L 7.998047 6 " transform="matrix(0.666667,0,0,0.666667,0,0)"></path>
<path style="fill:none;stroke-width:2;stroke-linecap:round;stroke-linejoin:round;stroke:rgb(0%,0%,0%);stroke-opacity:1;stroke-miterlimit:4;" d="M 3 10.001953 L 21 10.001953 " transform="matrix(0.666667,0,0,0.666667,0,0)"></path>
<path style="fill:none;stroke-width:2;stroke-linecap:round;stroke-linejoin:round;stroke:rgb(0%,0%,0%);stroke-opacity:1;stroke-miterlimit:4;" d="M 7.998047 13.998047 L 8.009766 13.998047 " transform="matrix(0.666667,0,0,0.666667,0,0)"></path>
<path style="fill:none;stroke-width:2;stroke-linecap:round;stroke-linejoin:round;stroke:rgb(0%,0%,0%);stroke-opacity:1;stroke-miterlimit:4;" d="M 12 13.998047 L 12.011719 13.998047 " transform="matrix(0.666667,0,0,0.666667,0,0)"></path>
<path style="fill:none;stroke-width:2;stroke-linecap:round;stroke-linejoin:round;stroke:rgb(0%,0%,0%);stroke-opacity:1;stroke-miterlimit:4;" d="M 16.001953 13.998047 L 16.007812 13.998047 " transform="matrix(0.666667,0,0,0.666667,0,0)"></path>
<path style="fill:none;stroke-width:2;stroke-linecap:round;stroke-linejoin:round;stroke:rgb(0%,0%,0%);stroke-opacity:1;stroke-miterlimit:4;" d="M 7.998047 18 L 8.009766 18 " transform="matrix(0.666667,0,0,0.666667,0,0)"></path>
<path style="fill:none;stroke-width:2;stroke-linecap:round;stroke-linejoin:round;stroke:rgb(0%,0%,0%);stroke-opacity:1;stroke-miterlimit:4;" d="M 12 18 L 12.011719 18 " transform="matrix(0.666667,0,0,0.666667,0,0)"></path>
<path style="fill:none;stroke-width:2;stroke-linecap:round;stroke-linejoin:round;stroke:rgb(0%,0%,0%);stroke-opacity:1;stroke-miterlimit:4;" d="M 16.001953 18 L 16.007812 18 " transform="matrix(0.666667,0,0,0.666667,0,0)"></path>
</g>
</symbol><symbol xmlns="http://www.w3.org/2000/svg" xmlns:xlink="http://www.w3.org/1999/xlink" width="16px" height="16px" viewbox="0 0 16 16" version="1.1" id="gamepad">
<g id="surface1">
<path style="fill:none;stroke-width:2;stroke-linecap:round;stroke-linejoin:round;stroke:rgb(0%,0%,0%);stroke-opacity:1;stroke-miterlimit:4;" d="M 6 10.998047 L 10.001953 10.998047 " transform="matrix(0.666667,0,0,0.666667,0,0)"></path>
<path style="fill:none;stroke-width:2;stroke-linecap:round;stroke-linejoin:round;stroke:rgb(0%,0%,0%);stroke-opacity:1;stroke-miterlimit:4;" d="M 7.998047 9 L 7.998047 13.001953 " transform="matrix(0.666667,0,0,0.666667,0,0)"></path>
<path style="fill:none;stroke-width:2;stroke-linecap:round;stroke-linejoin:round;stroke:rgb(0%,0%,0%);stroke-opacity:1;stroke-miterlimit:4;" d="M 15 12 L 15.011719 12 " transform="matrix(0.666667,0,0,0.666667,0,0)"></path>
<path style="fill:none;stroke-width:2;stroke-linecap:round;stroke-linejoin:round;stroke:rgb(0%,0%,0%);stroke-opacity:1;stroke-miterlimit:4;" d="M 18 10.001953 L 18.011719 10.001953 " transform="matrix(0.666667,0,0,0.666667,0,0)"></path>
<path style="fill:none;stroke-width:2;stroke-linecap:round;stroke-linejoin:round;stroke:rgb(0%,0%,0%);stroke-opacity:1;stroke-miterlimit:4;" d="M 17.320312 4.998047 L 6.679688 4.998047 C 4.628906 4.998047 2.912109 6.550781 2.701172 8.589844 C 2.695312 8.642578 2.689453 8.689453 2.683594 8.742188 C 2.601562 9.416016 1.998047 14.455078 1.998047 16.001953 C 1.998047 17.654297 3.345703 19.001953 4.998047 19.001953 C 6 19.001953 6.498047 18.498047 7.001953 18 L 8.414062 16.587891 C 8.789062 16.212891 9.298828 16.001953 9.826172 16.001953 L 14.173828 16.001953 C 14.701172 16.001953 15.210938 16.212891 15.585938 16.587891 L 16.998047 18 C 17.501953 18.498047 18 19.001953 19.001953 19.001953 C 20.654297 19.001953 22.001953 17.654297 22.001953 16.001953 C 22.001953 14.455078 21.398438 9.416016 21.316406 8.742188 C 21.310547 8.689453 21.304688 8.642578 21.298828 8.589844 C 21.087891 6.550781 19.371094 4.998047 17.320312 4.998047 Z M 17.320312 4.998047 " transform="matrix(0.666667,0,0,0.666667,0,0)"></path>
</g>
</symbol><symbol xmlns="http://www.w3.org/2000/svg" xmlns:xlink="http://www.w3.org/1999/xlink" width="16px" height="16px" viewbox="0 0 16 16" version="1.1" id="wrench">
<g id="surface1">
<path style="fill:none;stroke-width:2;stroke-linecap:round;stroke-linejoin:round;stroke:rgb(0%,0%,0%);stroke-opacity:1;stroke-miterlimit:4;" d="M 14.701172 6.298828 C 14.320312 6.691406 14.320312 7.3125 14.701172 7.699219 L 16.300781 9.298828 C 16.6875 9.679688 17.308594 9.679688 17.701172 9.298828 L 21.46875 5.53125 C 22.5 7.804688 22.013672 10.482422 20.244141 12.246094 C 18.480469 14.009766 15.802734 14.501953 13.529297 13.470703 L 6.621094 20.378906 C 5.789062 21.210938 4.447266 21.210938 3.621094 20.378906 C 2.789062 19.552734 2.789062 18.210938 3.621094 17.378906 L 10.529297 10.470703 C 9.498047 8.197266 9.990234 5.519531 11.753906 3.755859 C 13.517578 1.986328 16.195312 1.5 18.46875 2.53125 Z M 14.701172 6.298828 " transform="matrix(0.666667,0,0,0.666667,0,0)"></path>
</g>
</symbol>
</svg>