<svg>
<symbol xmlns="http://www.w3.org/2000/svg" xmlns:xlink="http://www.w3.org/1999/xlink" width="40px" height="40px" viewbox="0 0 40 40" version="1.1" id="arrow">
<g id="surface1">
<path style="fill:none;stroke-width:2;stroke-linecap:round;stroke-linejoin:round;stroke:currentColor;stroke-opacity:1;stroke-miterlimit:4;" d="M 22.000781 12 C 22.000781 17.521875 17.521875 22.000781 12 22.000781 C 6.478125 22.000781 1.999219 17.521875 1.999219 12 C 1.999219 6.478125 6.478125 1.999219 12 1.999219 C 17.521875 1.999219 22.000781 6.478125 22.000781 12 Z M 22.000781 12 " transform="matrix(1.666667,0,0,1.666667,0,0)"></path>
<path style="fill:none;stroke-width:2;stroke-linecap:round;stroke-linejoin:round;stroke:currentColor;stroke-opacity:1;stroke-miterlimit:4;" d="M 16.000781 12 L 12 7.999219 L 7.999219 12 " transform="matrix(1.666667,0,0,1.666667,0,0)"></path>
<path style="fill:none;stroke-width:2;stroke-linecap:round;stroke-linejoin:round;stroke:currentColor;stroke-opacity:1;stroke-miterlimit:4;" d="M 12 16.000781 L 12 7.999219 " transform="matrix(1.666667,0,0,1.666667,0,0)"></path>
</g>
</symbol><symbol xmlns="http://www.w3.org/2000/svg" xmlns:xlink="http://www.w3.org/1999/xlink" width="40px" height="40px" viewbox="0 0 40 40" version="1.1" id="bird">
<g id="surface1">
<path style="fill:none;stroke-width:2;stroke-linecap:round;stroke-linejoin:round;stroke:currentColor;stroke-opacity:1;stroke-miterlimit:4;" d="M 16.000781 7.000781 L 16.010156 7.000781 " transform="matrix(1.666667,0,0,1.666667,0,0)"></path>
<path style="fill:none;stroke-width:2;stroke-linecap:round;stroke-linejoin:round;stroke:currentColor;stroke-opacity:1;stroke-miterlimit:4;" d="M 3.400781 18 L 12 18 C 16.417969 18 19.999219 14.41875 19.999219 10.000781 L 19.999219 7.000781 C 20.003906 5.252344 18.871875 3.703125 17.205469 3.175781 C 15.536719 2.648438 13.720313 3.264844 12.719531 4.699219 L 1.999219 19.999219 " transform="matrix(1.666667,0,0,1.666667,0,0)"></path>
<path style="fill:none;stroke-width:2;stroke-linecap:round;stroke-linejoin:round;stroke:currentColor;stroke-opacity:1;stroke-miterlimit:4;" d="M 19.999219 7.000781 L 22.000781 7.5 L 19.999219 7.999219 " transform="matrix(1.666667,0,0,1.666667,0,0)"></path>
<path style="fill:none;stroke-width:2;stroke-linecap:round;stroke-linejoin:round;stroke:currentColor;stroke-opacity:1;stroke-miterlimit:4;" d="M 10.000781 18 L 10.000781 21 " transform="matrix(1.666667,0,0,1.666667,0,0)"></path>
<path style="fill:none;stroke-width:2;stroke-linecap:round;stroke-linejoin:round;stroke:currentColor;stroke-opacity:1;stroke-miterlimit:4;" d="M 13.999219 17.749219 L 13.999219 21 " transform="matrix(1.666667,0,0,1.666667,0,0)"></path>
<path style="fill:none;stroke-width:2;stroke-linecap:round;stroke-linejoin:round;stroke:currentColor;stroke-opacity:1;stroke-miterlimit:4;" d="M 7.000781 18 C 9.527344 18 11.782031 16.417969 12.642188 14.041406 C 13.502344 11.667187 12.780469 9.007031 10.839844 7.389844 " transform="matrix(1.666667,0,0,1.666667,0,0)"></path>
</g>
</symbol><symbol xmlns="http://www.w3.org/2000/svg" xmlns:xlink="http://www.w3.org/1999/xlink" width="40px" height="40px" viewbox="0 0 40 40" version="1.1" id="loader">
<g id="surface1">
<path style="fill:none;stroke-width:2;stroke-linecap:round;stroke-linejoin:round;stroke:currentColor;stroke-opacity:1;stroke-miterlimit:4;" d="M 12 1.999219 L 12 6 " transform="matrix(1.666667,0,0,1.666667,0,0)"></path>
<path style="fill:none;stroke-width:2;stroke-linecap:round;stroke-linejoin:round;stroke:currentColor;stroke-opacity:1;stroke-miterlimit:4;" d="M 12 18 L 12 22.000781 " transform="matrix(1.666667,0,0,1.666667,0,0)"></path>
<path style="fill:none;stroke-width:2;stroke-linecap:round;stroke-linejoin:round;stroke:currentColor;stroke-opacity:1;stroke-miterlimit:4;" d="M 4.928906 4.928906 L 7.760156 7.760156 " transform="matrix(1.666667,0,0,1.666667,0,0)"></path>
<path style="fill:none;stroke-width:2;stroke-linecap:round;stroke-linejoin:round;stroke:currentColor;stroke-opacity:1;stroke-miterlimit:4;" d="M 16.239844 16.239844 L 19.071094 19.071094 " transform="matrix(1.666667,0,0,1.666667,0,0)"></path>
<path style="fill:none;stroke-width:2;stroke-linecap:round;stroke-linejoin:round;stroke:currentColor;stroke-opacity:1;stroke-miterlimit:4;" d="M 1.999219 12 L 6 12 " transform="matrix(1.666667,0,0,1.666667,0,0)"></path>
<path style="fill:none;stroke-width:2;stroke-linecap:round;stroke-linejoin:round;stroke:currentColor;stroke-opacity:1;stroke-miterlimit:4;" d="M 18 12 L 22.000781 12 " transform="matrix(1.666667,0,0,1.666667,0,0)"></path>
<path style="fill:none;stroke-width:2;stroke-linecap:round;stroke-linejoin:round;stroke:currentColor;stroke-opacity:1;stroke-miterlimit:4;" d="M 4.928906 19.071094 L 7.760156 16.239844 " transform="matrix(1.666667,0,0,1.666667,0,0)"></path>
<path style="fill:none;stroke-width:2;stroke-linecap:round;stroke-linejoin:round;stroke:currentColor;stroke-opacity:1;stroke-miterlimit:4;" d="M 16.239844 7.760156 L 19.071094 4.928906 " transform="matrix(1.666667,0,0,1.666667,0,0)"></path>
</g>
</symbol><symbol xmlns="http://www.w3.org/2000/svg" xmlns:xlink="http://www.w3.org/1999/xlink" width="15px" height="15px" viewbox="0 0 15 15" version="1.1" id="external-link">
<g id="surface1">
<path style="fill:none;stroke-width:2;stroke-linecap:round;stroke-linejoin:round;stroke:rgb(0%,0%,0%);stroke-opacity:1;stroke-miterlimit:4;" d="M 18 13 L 18 19 C 18 20.10625 17.10625 21 16 21 L 5 21 C 3.89375 21 3 20.10625 3 19 L 3 8 C 3 6.89375 3.89375 6 5 6 L 11 6 " transform="matrix(0.625,0,0,0.625,0,0)"></path>
<path style="fill:none;stroke-width:2;stroke-linecap:round;stroke-linejoin:round;stroke:rgb(0%,0%,0%);stroke-opacity:1;stroke-miterlimit:4;" d="M 15 3 L 21 3 L 21 9 " transform="matrix(0.625,0,0,0.625,0,0)"></path>
<path style="fill:none;stroke-width:2;stroke-linecap:round;stroke-linejoin:round;stroke:rgb(0%,0%,0%);stroke-opacity:1;stroke-miterlimit:4;" d="M 10 14 L 21 3 " transform="matrix(0.625,0,0,0.625,0,0)"></path>
</g>
</symbol><symbol xmlns="http://www.w3.org/2000/svg" xmlns:xlink="http://www.w3.org/1999/xlink" width="18px" height="18px" viewbox="0 0 18 18" version="1.1" id="x">
<g id="surface1">
<path style="fill:none;stroke-width:2;stroke-linecap:round;stroke-linejoin:round;stroke:rgb(0%,0%,0%);stroke-opacity:1;stroke-miterlimit:4;" d="M 18 6 L 6 18 " transform="matrix(0.75,0,0,0.75,0,0)"></path>
<path style="fill:none;stroke-width:2;stroke-linecap:round;stroke-linejoin:round;stroke:rgb(0%,0%,0%);stroke-opacity:1;stroke-miterlimit:4;" d="M 6 6 L 18 18 " transform="matrix(0.75,0,0,0.75,0,0)"></path>
</g>
</symbol>
</svg>